<svg id="Layer_1" data-name="Layer 1" xmlns="http://www.w3.org/2000/svg" width="22" height="22" viewBox="0 0 22 22"><title>export</title><path d="M18,19H2V3H13V1H1A1,1,0,0,0,0,2V20a1,1,0,0,0,1,1H19a1,1,0,0,0,1-1V13H18Z" fill="#505050"/><path d="M21.84,6.63l-6.16-5.5a.38.38,0,0,0-.42,0,.44.44,0,0,0-.22.38V4.35C8,4.63,8,10.42,8,13.23v.33A.42.42,0,0,0,8.3,14h.1a.4.4,0,0,0,.35-.21c2.08-4,3.8-4.17,6.29-4.18v2.87a.44.44,0,0,0,.22.39.38.38,0,0,0,.42-.06l6.17-5.51A.43.43,0,0,0,22,7,.45.45,0,0,0,21.84,6.63Z" fill="#505050"/></svg>