<svg id="Layer_1" data-name="Layer 1" xmlns="http://www.w3.org/2000/svg" width="22" height="22" viewBox="0 0 22 22"><title>import</title><path d="M21,1H12V3h8V19H4V15H2v5a1,1,0,0,0,1,1H21a1,1,0,0,0,1-1V2A1,1,0,0,0,21,1Z" fill="#505050"/><path d="M7,9.59v2.87a.44.44,0,0,0,.22.39.38.38,0,0,0,.42-.06l6.17-5.51A.43.43,0,0,0,14,7a.45.45,0,0,0-.15-.33L7.68,1.13a.38.38,0,0,0-.42,0A.44.44,0,0,0,7,1.46V4.35C0,4.63,0,10.42,0,13.23v.33A.42.42,0,0,0,.3,14H.4a.4.4,0,0,0,.35-.21C2.83,9.79,4.55,9.6,7,9.59Z" fill="#505050"/></svg>