<svg xmlns="http://www.w3.org/2000/svg" xmlns:xlink="http://www.w3.org/1999/xlink" xmlns:svgjs="http://svgjs.com/svgjs" width="16" height="16"><svg width="16" height="16" viewBox="0 0 16 16" fill="none" xmlns="http://www.w3.org/2000/svg"><g clip-path="url(#clip0_869_389)"><rect width="16" height="16" rx="1.5" fill="#fff"/><mask id="SvgjsMask1001" style="mask-type:luminance" maskUnits="userSpaceOnUse" x="0" y="0" width="16" height="16"><path d="M16 0H0v16h16V0z" fill="#fff"/></mask><g mask="url(#mask0_869_389)"><path fill-rule="evenodd" clip-rule="evenodd" d="M1.248 16h13.5c.692 0 1.248-.56 1.248-1.248V4.187C8.248 5.539 3.568 9.722 1.108 12.801c-.432.492-.74.984-.924 1.351-.06.12-.18.424-.184.608a1.25 1.25 0 0 0 1.248 1.236V16z" fill="#596C7D"/><path fill-rule="evenodd" clip-rule="evenodd" d="M1.248 0A1.25 1.25 0 0 0 0 1.248V9.41C2.832 6.458 7.84 3.45 15.384 2.395c.28-.04.48-.068.616-.092V1.248C16 .556 15.44 0 14.752 0H1.248z" fill="#2190F6"/><path d="M13.132 10.73c.3.255.556.547.756.867l.004-.008c.152.28.224.588.212.896.016.428-.148.852-.46 1.184a1.551 1.551 0 0 1-.536.348c-.192.072-.4.112-.604.112h-.072a1.76 1.76 0 0 1-.992-.304l-.044-.028v-1.024l.16.116c.228.172.508.268.808.288a.776.776 0 0 0 .272-.044.629.629 0 0 0 .22-.14.678.678 0 0 0 .18-.504.96.96 0 0 0-.144-.532 2.144 2.144 0 0 0-.208-.264 5.003 5.003 0 0 0-.356-.344 11.121 11.121 0 0 1-.564-.528c-.124-.12-1.252-1.327-.132-2.447.148-.148.332-.26.532-.336.2-.076.424-.108.636-.1h.012c.32 0 .644.072.932.204l.056.028v1.032l-.156-.112a1.32 1.32 0 0 0-.696-.236.801.801 0 0 0-.276.048.618.618 0 0 0-.224.144c-.136.132-.432.604.204 1.24.116.115.272.26.48.443zM9.076 8.026h1.088v4.579c0 1.1-.552 1.348-.76 1.431a1.442 1.442 0 0 1-.54.104c-.02 0-.039 0-.058-.002a1.086 1.086 0 0 0-.058-.002h-.044c-.256 0-.512-.055-.744-.16l-.06-.027V12.92l.152.092c.16.1.348.16.544.18.44 0 .48-.412.48-.632V8.026z" fill="#fff"/></g></g><defs><clipPath id="SvgjsClipPath1000"><rect width="16" height="16" rx="1.5" fill="#fff"/></clipPath></defs></svg><style>@media (prefers-color-scheme:light){:root{filter:none}}</style></svg>